<svg xmlns="http://www.w3.org/2000/svg" width="146" height="146" viewBox="0 0 146 146" fill="none">
  <path fill-rule="evenodd" clip-rule="evenodd" d="M78.7036 0.604492H67.2797V39.5129C66.9566 39.568 66.635 39.6276 66.3151 39.6918L52.4805 3.32613L41.8032 7.38812L55.6609 43.8147C55.4098 43.9653 55.1608 44.119 54.9139 44.2759L29.0694 15.0929L20.5171 22.6668L46.4421 51.9407C46.4039 51.9893 46.3658 52.0379 46.3279 52.0867L12.0782 33.212L6.56439 43.2173L40.9439 62.1635C40.8627 62.409 40.7841 62.6556 40.7083 62.9035L1.84002 57.331L0.21875 68.6393L35.3441 73.6752L0.325241 79.4048L2.16984 90.6789L41.2491 84.2849L41.2719 84.3476L6.63245 103.538L12.1686 113.531L46.9521 94.2607C47.0781 94.4132 47.2054 94.5647 47.3339 94.7149L21.6034 125.041L30.3144 132.432L55.9676 102.197L41.9517 139.289L52.6381 143.327L66.7572 105.962C66.9309 105.995 67.1051 106.026 67.2797 106.055V146H78.7036V106.055C78.9025 106.022 79.1008 105.986 79.2984 105.949L93.5012 143.282L104.179 139.22L89.9982 101.945C90.158 101.852 90.3169 101.757 90.475 101.662L116.913 131.514L125.465 123.94L99.1747 94.254L133.904 113.393L139.417 103.388L104.737 84.2758C104.812 84.0699 104.885 83.8631 104.955 83.6553L144.143 89.2737L145.764 77.9653L110.646 72.9305L145.658 67.2022L143.813 55.9282L105.073 62.2665C105.054 62.2085 105.035 62.1505 105.016 62.0925L139.35 43.0706L133.814 33.0778L99.6095 52.0277C99.438 51.8081 99.2638 51.5907 99.0871 51.3755L124.38 21.5649L115.669 14.174L90.4533 43.8936L90.3812 43.8501C90.3394 43.8249 90.2976 43.7998 90.2557 43.7749L104.032 7.31773L93.3452 3.27967L79.592 39.6766C79.2972 39.6182 79.0011 39.5636 78.7036 39.5129V0.604492Z" fill="#6A45FF"/>
</svg>